<svg aria-hidden="true" style="position: absolute; width: 0; height: 0; overflow: hidden;" version="1.1" xmlns="http://www.w3.org/2000/svg" xmlns:xlink="http://www.w3.org/1999/xlink">
<defs>
<symbol id="icon-close" viewBox="0 0 24 24">
<path d="M12 13.414l5.293 5.293 1.414-1.414-5.293-5.293 5.293-5.293-1.414-1.414-5.293 5.293-5.293-5.293-1.414 1.414 5.293 5.293-5.293 5.293 1.414 1.414 5.293-5.293z"></path>
</symbol>
<symbol id="icon-download" viewBox="0 0 24 24">
<path d="M11 12.586v-8.586h2v8.586l3.293-3.293 1.414 1.414-5.707 5.707-5.707-5.707 1.414-1.414 3.293 3.293z"></path>
<path d="M18 20h-12v-2h12v2z"></path>
</symbol>
<symbol id="icon-menu" viewBox="0 0 24 24">
<path d="M19 8h-14v-2h14v2z"></path>
<path d="M19 13h-14v-2h14v2z"></path>
<path d="M5 18h14v-2h-14v2z"></path>
</symbol>
<symbol id="icon-chevron-down-tiny" viewBox="0 0 24 24">
<path d="M16 11h-8l4 4 4-4z"></path>
</symbol>
<symbol id="icon-key-alt" viewBox="0 0 24 24">
<path d="M15 10c-0.552 0-1-0.448-1-1s0.448-1 1-1c0.552 0 1 0.448 1 1s-0.448 1-1 1z"></path>
<path d="M14 15h-2v2h-2v2h-5v-4.414l4.031-4.031c-0.020-0.183-0.031-0.368-0.031-0.555 0-2.761 2.239-5 5-5s5 2.239 5 5c0 2.761-2.239 5-5 5zM11 10c0 0.233 0.026 0.459 0.076 0.675l0.124 0.54-4.2 4.2v1.586h1v-2h2v-2h4c1.657 0 3-1.343 3-3s-1.343-3-3-3-3 1.343-3 3z"></path>
</symbol>
</defs>
</svg>
