<svg xmlns="http://www.w3.org/2000/svg" xmlns:xlink="http://www.w3.org/1999/xlink" viewBox="0 0 1267.58 161.45"><defs><style>.cls-1{isolation:isolate;}.cls-2{fill:#020221;}.cls-3{fill:url(#linear-gradient);}.cls-4{fill:url(#linear-gradient-2);}.cls-5{fill:url(#linear-gradient-3);}.cls-6{fill:url(#linear-gradient-4);}.cls-7{fill:url(#linear-gradient-5);}.cls-8{fill:url(#linear-gradient-6);}.cls-9{fill:url(#linear-gradient-7);}.cls-10{opacity:0.15;}.cls-10,.cls-12{mix-blend-mode:hard-light;}.cls-11{fill:#2b2b54;}.cls-12{opacity:0.07;}.cls-13{fill:#181884;}.cls-14{opacity:0.3;mix-blend-mode:overlay;}.cls-15{fill:#fff;}.cls-16{fill:url(#linear-gradient-8);}</style><linearGradient id="linear-gradient" x1="633.79" y1="111.47" x2="633.79" y2="25.4" gradientUnits="userSpaceOnUse"><stop offset="0" stop-color="#020221"/><stop offset="0.45" stop-color="#27664d"/><stop offset="0.58" stop-color="#32835a"/><stop offset="0.66" stop-color="#338b64"/><stop offset="0.81" stop-color="#34a17f"/><stop offset="1" stop-color="#36c2a9"/></linearGradient><linearGradient id="linear-gradient-2" x1="598.79" y1="131.32" x2="598.79" y2="70.53" xlink:href="#linear-gradient"/><linearGradient id="linear-gradient-3" x1="1120.5" y1="65.35" x2="1120.5" y2="27.72" xlink:href="#linear-gradient"/><linearGradient id="linear-gradient-4" x1="806.09" y1="52.41" x2="806.09" y2="-3.18" xlink:href="#linear-gradient"/><linearGradient id="linear-gradient-5" x1="1072.57" y1="148.79" x2="1072.57" y2="110.45" xlink:href="#linear-gradient"/><linearGradient id="linear-gradient-6" x1="633.79" y1="120.02" x2="633.79" y2="8" gradientUnits="userSpaceOnUse"><stop offset="0" stop-color="#c3fbed"/><stop offset="1" stop-color="#b1e5eb"/></linearGradient><linearGradient id="linear-gradient-7" x1="633.79" y1="153.45" x2="633.79" y2="120.02" gradientUnits="userSpaceOnUse"><stop offset="0" stop-color="#020221"/><stop offset="0.56" stop-color="#32835a"/><stop offset="0.85" stop-color="#35af91"/><stop offset="1" stop-color="#36c2a9"/></linearGradient><linearGradient id="linear-gradient-8" x1="1064.55" y1="50.82" x2="1064.55" y2="4.11" xlink:href="#linear-gradient"/></defs><title>logo_MIg</title><g class="cls-1"><g id="Layer_2" data-name="Layer 2"><g id="Layer_1-2" data-name="Layer 1"><g id="Mine-imator_green_" data-name="Mine-imator (green)"><path id="Outline" class="cls-2" d="M1267.58,122.41l-3.68,3.45-35.7,33.43-2.3,2.16h-51.73l-1.12-3.82-1.33,1.37-2.36,2.45h-52.13l-1-3.87-1,1.09-2.39,2.78H1094.1l-.43-1.69-1.39,1.69h-68.2l-.27-1.29-.91,1.29h-19.58L1002,155l-6.61-32.64-1.06,1.76-20.21,33.43-2.34,3.86H917.87l-1.06-6.76L904.48,76h-5.11l5.75,43,.3,2.26-.93,2.09-15,33.42-2.13,4.72H832.4l-.32-2.92-1,2.92H775.42l-.13-1.62-.4,1.62H718.42l-.38-7.6-.72-14.53H678.19L677.25,154l-.48,7.49h-114l-.82-7.08-3.87-33.43-.07-.59,0-.6.06-1.61H495.7l-.1-.43h-4.28l3,11.62.33,1.3-.1,1.33-1.78,22.13-.59,7.36H380.27l-1.58-3.51-.5,3.51H324l-2.28-4.13-10.53-19-3,16.57L307,161.45h-53.5L251.1,158l-.27-.4-.82,3.89H197.06l-2.4-3.06-.66-.84-.94,3.9H140.58l-2.38-2.69-17.26-19.44H104.43l-2.38-2.59-1-1.14-5.92,20.12-1.69,5.74H41.68l-2.3-2.16L3.68,125.86,0,122.41l1.53-4.81,35.53-112L38.83,0H91.16l2.4,3.06,21.8,27.8,1-3.58,1.6-5.91h14.32L136.31,6l1.57-6H191l2.36,3.68.19.29.92-4H248.1l2.18,3.89L251.07,0h54.17l2.18,4.55,8.05,16.82h.29l1.88,3.93,3.05-18.6L321.8,0h54.91l1.23,3.26L378.37,0H491.2l1.36,6.33,8,37.35h60.13l1.23-36L562.18,0h115l.15,7.85.25,13.52h14.3l.21,7.79.38,14.08h10.66l1.73-14.8.83-7.07h10.58L718.12,7,719,0h57.05l.07,1,.21-1H889.21l.43,3.25L890.87,0h111.49l.75,3.85L1005.19,0h20.16l.14.67.35-.67h69.07l.34,1.41.94-1.41h19.35l1,4,.41-.59,2.39-3.4h109.38l1.77,5.58,13.72,43.24,1.4,4.44-1,1.11H1246l1.77,5.58,18.29,57.65Z"/><path id="Extrusion6" class="cls-3" d="M82.65,73.63l31.5,36.08H100.29L68,73.63Zm29.39,0,29.82,36.08h13.86l-29-36.08ZM290.43,62.37l19.62,36.72h13.78L305,62.37ZM420.68,73.63l12.18,36.08h55.43l-8.82-36.08Zm73.46.45,8,36.06h55.44l-4.62-36.06Zm174.29,35.63h13.86l2.94-36.08h-14.7Zm41.57,0h13.86l5.46-36.08h-14.7Zm110.86,0h13.85l12.18-36.08h-14.7Zm255.85-4.44h11.52l27.54-36.35h-12.22Zm-68,0h11.52l23.42-36.35h-12.21Zm176.18-31.64-31.49,36.08h13.85l32.34-36.08Z"/><path id="Extrusion5" class="cls-4" d="M105.82,96.55,136,131.32H108L76.08,96.55ZM301.15,85l19,35.43h13.93L315.93,85Zm381.72,46.3h28l4.67-34.77H685.84Zm330.33-4.55h11.65l23.71-35H1036.2Zm95.93-35-27.16,35h11.66l27.87-35Z"/><path id="Extrusion4" class="cls-5" d="M1098.09,46.64h12.08L1083,84.26h-11.39Zm-93.7,37.62h11.38l23.15-37.62h-12.07Zm217.7-33-19.95,22.4h13.69l20.78-22.4Z"/><path id="Extrusion3" class="cls-6" d="M483,29.37,491.64,68H437.49l-11.9-38.61ZM816.55,68h13.54L842,29.37H827.63Zm250-4.24h11.26l26.91-38.86h-11.94Zm-66.4,0h11.26l22.88-38.86h-11.93ZM884.25,68h27.07l16.82-38.61H899.42Zm67.69,0H979l20.93-38.61H971.22Zm220.3-38.61L1141.47,68H1155l31.59-38.61Z"/><polygon id="O-side" class="cls-2" points="1010.85 12.35 988.47 52.63 1009.86 153.45 1032.66 120.02 1010.85 12.35"/><path id="Extrusion2" class="cls-7" d="M1041,115.08h12.51l-24,33.71h-11.79Zm73.81,0-27.49,33.71h11.8l28.21-33.71Z"/><path id="Text" class="cls-8" d="M1109.33,8h-8.87l1.11,4.41h-11.86L1088.63,8h-58l.95,4.41h-11.86L1018.84,8H1010l22.69,112h9.4l-1-4.94h12.51l1,4.94h61.46l-1.21-4.94h12.52l1.24,4.94H1138L1109.33,8M995.77,8H896.4l3,21.37h28.72L942.34,120H987.5L971.22,29.37h28.72L995.77,8M882.21,8H782.84l9,112H837l-4.79-46.39h14.7L852,120h45.16l-15-112M768.65,8h-42.6l1.07,21.37H712.76l.92,21.87h-29L684,29.37H669.69L669.28,8H626.69l-.42,112h45.15l-.89-46.39h14.7l.61,22.92h29.74l-1-22.92h14.7l2.3,46.39h45.16L768.65,8M612.49,8H569.91l-3.85,112h45.15L612.49,8M484.73,8H385.37l-15,112H475.74l1.89-23.47H418.14l2.54-22.92h58.79l1.79-22.39h-58.1l2.43-21.87H483L484.73,8M371.17,8H328.59l-7.11,43.24H307l3.76-21.87H296.36L300.2,8H257.61L234.92,120h45.16l10.35-57.65H305L301.15,85h14.78l-5.75,35h45.15L371.17,8M243.41,8H200.83L174.72,120h45.15L243.41,8M186.64,8H144.05l-5.64,21.37H124.05l-5.93,21.87H89.07l6.27-21.87H81L87.27,8H44.68L9.15,120H54.3L68,73.63H82.65L76.08,96.55h29.74L112,73.63h14.7L114.51,120h45.16l27-112M553.88,51.68H495.76l-1.62,22.4h58.8l.94-22.4m484.32,49.71-2-9.66h12.36l2.06,9.66H1038.2m73.3,0-2.37-9.66h12.37l2.43,9.66H1111.5m-78.08-23-2-9.44h12.21l2,9.44h-12.28m72.44,0-2.31-9.44h12.22l2.37,9.44h-12.28m-77.1-22.5-1.91-9.22h12.07l2,9.22h-12.13m71.59,0-2.26-9.22h12.08l2.32,9.22h-12.14M829.89,51.24l-2.26-21.87H842l2.42,21.87H829.89m348.62,0-6.27-21.87h14.36L1193,51.24h-14.52M1024.2,33.89l-1.86-9h11.93l1.93,9h-12m70.77,0-2.21-9h11.94l2.27,9h-12M1222.9,8h-99.37l29.54,112h45.15l-13.3-46.39h14.7L1213.27,120h45.16l-18.29-57.65h-14.61l-3.44-11.13h14.52L1222.9,8"/><path id="Extrusion" class="cls-9" d="M54.3,120l33.12,33.43H44.85L9.15,120Zm60.21,0,29.67,33.43h42.58L159.67,120Zm60.21,0L201,153.45h42.57L219.87,120Zm60.2,0,22.79,33.43h42.58L280.08,120Zm75.26,0,18.49,33.43h42.57L355.33,120Zm60.21,0,15.05,33.43h99.34l-9-33.43Zm195.67,0,3.87,33.43H612.5L611.21,120Zm60.21,0,.43,33.43h42.57L671.42,120Zm105.35,0L726,153.45h42.58L776.78,120Zm60.21,0-9,33.43h42.57L837,120Zm60.2,0-12.47,33.43h42.58L897.19,120Zm180.63,0-22.8,33.43h8.87L1042.06,120Zm21.94,0-24,33.43h57.94L1116.06,120Zm54.6,33.43L1138,120h-9.41l-28.28,33.43ZM942.34,120l-17.63,33.43h42.58L987.5,120Zm210.73,0-29.68,33.43H1166L1198.22,120Zm60.2,0-33.11,33.43h42.58L1258.43,120Z"/><path id="E-side" class="cls-2" d="M488.29,109.71l-8.82-36.08,1.79-22.39L490,88.6Zm-1.74,21.61-8.92-34.77L475.74,120l9,33.43Z"/><g id="Pattern"><g class="cls-10"><path class="cls-11" d="M926.21,18.49H911.93L910.36,8h14.21ZM953,8h-14.2l1.72,10.49h14.29ZM899.41,29.27h14.12l-1.6-10.78h-14Zm71.6,0h14.36l-2-10.78H969.07Zm-12.5,10.9H973l-2-10.9H956.64Zm-216.41,0H727.66l.55,11h14.52ZM640.89,8h-14.2l0,10.49h14.28Zm381.46,16.92h5.36l-1.36-6.43h-14.26l2.18,10.78h9Zm-367,4.35h14.36l-.21-10.78H640.93l0,10.78ZM797,8,798,18.49h14.27L811.23,8ZM740.86,18.49,740.26,8h-14.2l.52,10.49.54,10.78h14.35Zm86.76,10.78H842l-1.19-10.78H826.51Zm217.72,10.9L1043,29.27h-7.76l1,4.68h-6.61l1.31,6.22Zm141.24-10.75h0l3.17,10.75h14.42l-3.3-10.9h-14.36Zm-17.5-10.93h14.29L1180.28,8h-14.21Zm-114.2,0h-14.26L1043,29.27h14.34Zm74.26,10.78h28.66l-3-10.78H1126.3ZM641.05,51.2H626.53l0,11.16H641.1Zm534.29-11h0l3.16,11h0ZM1066.7,8l2.44,10.49h14.27L1080.88,8ZM1086,29.27h7.84l-1.06-4.35h6.49l-1.6-6.43h-14.26ZM1047.74,51.2h-7.84l1,4.77h-6.69l1.34,6.39h14.6ZM1100.46,8l1.11,4.42h-5.41l1.51,6.07h14.26L1109.25,8ZM1074.2,40.17h14.43L1086,29.27h-14.34Zm-11.94,11h14.51l-2.57-11h-14.43Zm29,0L1094,62.36h14.6L1107,56h-6.6l-1.17-4.77ZM981.39,8l2,10.49h14.28L995.6,8ZM77.8,40.17,81,29.42h0l0-.15H66.66l-3.3,10.9ZM55.63,18.49,52.3,29.27H66.66l3.25-10.78ZM195.88,29.27h0l-2.55,10.9h0Zm8.93,21.93-2.52,11.16h14.77l2.43-11.16Zm19.46-21.93h14.52l2.27-10.78H212.19l-2.43,10.78ZM184.11,18.49H169.84l-2.68,10.78h14.36ZM152.8,29.27l2.76-10.78H141.29l-2.85,10.78-2.87,10.9H150ZM89,51.34l-3.15,11H100.5l3.07-11Zm1122.9-32.85h14.28L1222.9,8h-14.21Zm-342.6,0h14.27L882.21,8H868Zm349.31,21.68h14.45l-3.46-10.9h-14.37ZM874.87,62.36h14.61L888,51.2H873.46ZM856.34,29.27H870.7l-1.36-10.78H855.06ZM399.61,8H385.42L384,18.49h14.27Zm-4.06,32.17-1.39,11h14.52l1.31-11Zm27.61,11.17V51.2H408.68l-1.32,11.16H422l1.23-11ZM470.56,8H456.37l-1,10.49h14.27Zm99,10.49-.37,10.78H597.9l.2-10.78H569.55ZM468.69,29.27l0,.15H483v-.15ZM426.83,18.49l-1.2,10.78H440l1.11-10.78ZM257.8,8l-2.13,10.49h14.26L272,8Zm85.05,0L341.2,18.49h14.26L357,8ZM282.17,29.27l2-10.78H269.93l-2.1,10.78Zm43,0h14.34l1.68-10.78H327ZM263.56,51.2H249.05l-2.26,11.16h14.59ZM214.56,8H200.83l-2.44,10.49h13.8Z"/></g><g class="cls-12"><path class="cls-13" d="M641,40.17h14.44l.13,11H641.05Zm86.11-10.75H712.77l.45,10.75h14.44Zm1.64,32.94H714.15l.47,11.29h14.7ZM669.69,29.42v-.15H655.33l.12,10.9h14.44ZM799.86,40.17l-1-10.9H784.55l.87,10.9h14.44Zm12.37-21.68H798l.95,10.78h14.35ZM782.84,8l.84,10.49H798L797,8ZM454.32,29.42h14.35l0-.15H454.34Zm11.46,32.94h14.6l.88-11H466.75ZM853.82,8l1.24,10.49h14.28L868,8ZM441.09,18.49h14.27l1-10.49H442.18Zm28.54,0H483.9L484.74,8H470.56Zm54,44.45.64-11.15H509.74L509,62.94ZM1132,40.17h14.38l-3-10.9h-14.29Zm-86.67,0h14.43l-2.46-10.9H1043ZM1030.67,8l.94,4.42h-6.53l1.27,6.07h28.53L1052.52,8Zm41,21.27H1086l-2.59-10.78h-28.53l2.43,10.78ZM1123.53,8l2.77,10.49h14.21L1137.66,8Zm-297,10.49h14.28L839.62,8H825.43ZM1107,34h-5.47l1.54,6.22h14.43l-2.79-10.9h-8.88ZM412.56,18.49l-1.28,10.78h14.35l1.2-10.78L428,8H413.8Zm531.5,21.68H929.84l1.72,11h14.31Zm55.68-10.9-2.1-10.78H983.36l2,10.78Zm-143.4,0H842l0,.15,1.19,10.75h14.44Zm69.87-10.78H911.93l1.6,10.78H927.9ZM967.19,8l1.88,10.49h14.29L981.39,8ZM938.78,8H924.57l1.64,10.49H940.5ZM640.93,18.49H626.65l0,10.78H641ZM87.27,8H73.08L69.91,18.49H84.18Zm56.78,0-2.76,10.49h14.27L158.25,8Zm439.2,32.17h14.44l.21-10.9H583.54Zm-404.36,0H164.45l-2.74,11h14.53ZM598.1,18.49l-.2,10.78h14.35l.13-10.78L612.5,8H598.3ZM52.3,29.27l-3.38,10.9H63.36l3.3-10.9ZM58.88,8H44.68L41.36,18.49H55.63ZM1208.69,8h-14.21l3.17,10.49h14.29Zm-25.32,10.49h-14.29l3.09,10.78h28.73l-3.25-10.78Zm31.9,10.78h14.37l-3.42-10.78h-14.28ZM1151.87,8l2.92,10.49h14.29l-3-10.49Zm52.33,32.17h14.45l-3.38-10.9H1200.9ZM755.13,18.49h14.28L768.65,8h-14.2Zm-456.81,0L300.2,8H272l-2,10.49h28.39ZM214.56,8l-2.37,10.49h14.43L228.91,8Zm-47.4,21.27,2.68-10.78H155.56L152.8,29.27ZM292.57,51.2H278.06L276,62.36h14.59ZM396.93,29.27l1.36-10.78H384l-1.44,10.78Zm-206,21.93h13.9l2.48-11,2.47-10.9H196l-2.55,10.9Zm204.64-11H381.12l-1.48,11h14.52ZM198.39,18.49h0L200.83,8h0ZM150,40.17H135.57l-2.91,11h14.53ZM325.1,29.27h.08L327,18.49h-.08Zm-186.66,0,0,.15H124.05l-2.92,10.75h14.44l2.87-10.9ZM132.66,51.2H118.14l-3,11.16h14.61Zm237-32.71H341.2l-1.68,10.78h28.65ZM328.67,8,327,18.49H341.2L342.85,8Z"/></g><g class="cls-14"><path class="cls-15" d="M669.48,18.49H655.2L655.08,8h14.2Zm128.48,0H783.68l.87,10.78h14.36ZM839.62,8l1.17,10.49h14.27L853.82,8ZM411.28,29.27H396.93l-1.38,10.9H410ZM684.63,51.34l.3,11h14.61l-.38-11ZM584.11,8h-14.2l-.36,10.49h14.28ZM413.8,8H399.61l-1.32,10.49h14.27ZM684.05,29.42H669.69l.2,10.75h14.44ZM953,8l1.81,10.49h14.28L967.19,8ZM827.64,29.42l0-.15-1.11-10.78H812.23l1,10.78,1,10.9h14.44Zm330.16-.15h14.37l-3.09-10.78h-14.29ZM958.51,40.17l-1.87-10.9H942.27l1.79,10.9Zm182.33,33.48h14.63l-3.06-11.29h-14.55ZM1180.28,8l3.09,10.49h14.28L1194.48,8Zm-33.89,32.17h14.45l-3-10.9h-14.37Zm-119.52,6.56h5.42l-1.38-6.56h-14.43l2.24,11h9.07Zm-1.79-34.31h-5.32L1018.84,8H1010l2.12,10.49h14.26Zm9.2,12.5.93,4.35H1043l-2.35-10.78h-14.27l1.36,6.43Zm61.88-12.5h-6.44L1088.63,8h-7.75l2.53,10.49h14.26ZM55.63,18.49H41.36L37.94,29.27H52.3ZM190.91,51.2h-.15l-2.6,11.16h.15Zm38-43.2-2.29,10.49h14.44L243.26,8ZM198.54,18.49h-.15l-2.51,10.78H196ZM597.26,62.36h14.61L612,51.2H597.48Zm624.8-11.16h14.54l-3.5-11h-14.45ZM483.9,18.49H469.63l-.94,10.78H483ZM758,62.36h14.61l-.81-11.16H757.26ZM221.9,40.17l2.37-10.9H209.76l-2.47,10.9Zm648.8-10.9h14.35l-1.44-10.78H869.34Zm-531.18,0H325.18l-1.79,10.9h14.42Zm-43,.15h-.13l0-.15H282.17l-2,10.9h14.42Zm70.15,10.75h-14.4l-1.64,11h14.48Zm-96.7-21.68H255.67l-2.18,10.78h14.34ZM164.45,40.17l2.71-10.9H152.8L150,40.17Zm-43.32,0-3,11h0l3-11Zm-46.57,11H60L56.66,62.36H71.28ZM144.05,8l-2.76,10.49h0L144.05,8Zm42.59,0h-14.2l-2.6,10.49h14.27Z"/></g></g><path id="Highlights" class="cls-15" d="M354.76,119l.57,1H310.18l.16-1Zm211.33,0,0,1h45.15l-.08-1Zm-331,0-.2,1h45.16l-.54-1Zm135.4,0-.13,1H475.74l-.51-1Zm-255.75,0-.26,1h45.16l-.69-1ZM175,119l-.23,1h45.15l-.64-1ZM9.47,119l-.32,1H54.3l-.79-1Zm616.8,0v1h45.15l0-1Zm429.13,0-.8,1h61.46l-.24-1Zm98.59,0-.92,1h45.15l-.29-1Zm-24.37,0-1,1H1138l-.26-1Zm-397.81,0-.19,1h45.16l-.07-1Zm482.66,0-1.2,1h45.16l-.32-1Zm-181,0-.77,1h9.4l-.21-1Zm-241.28,0-.32,1H837l-.1-1Zm150.67,0-.48,1H987.5l-.18-1Zm-90.41,0-.38,1h45.16l-.13-1ZM83,72.63H67.36l.6,1H82.65Zm44.07,0H111.4l.64,1h14.7Zm-21.9,22.92H76.37l-.29,1h29.74ZM305.19,61.37H290l.45,1H305ZM316.08,84H301.32l-.17,1h14.78ZM478.94,72.63H420.48l.2,1h58.78Zm3.63-44.26H425.42l.17,1H483Zm70,44.71H494.21l-.07,1h58.8Zm163,22.47H686l-.11,1h29.74ZM685.4,72.63H670.5l0,1h14.7Zm44.38,0H714.59l0,1h14.7ZM842.4,28.37H827.53l.1,1H842Zm4.88,44.26H832.11l.08,1h14.7Zm81.35-44.56H899.24l.18,1.3h28.72Zm71.11.3H971l.18,1h28.72Zm35.08-4.49H1022.1l.24,1h11.93Zm70.62,0h-13l.28,1h11.93Zm-65.9,21.76h-12.9l.21,1h12.07Zm4.78,22.28h-13.06l.21,1h12.21Zm4.92,22.81H1036l.21,1h12.35Zm72.84,0H1108.9l.23,1h12.37Zm-5.53-22.81h-13.32l.32,1h12.21Zm-5.61-22.28h-13.1l.25,1h12.08ZM1054,114.27H1040.9l.14.81h12.5Zm74.22-.19h-13.59l.21,1h12.52Zm59.12-85.71h-15.51l.4,1h14.35Zm13.16,44.26h-15.85l.26,1h14.7Zm35.79-22.39h-14.5l.29,1h14.52Z"/><polygon class="cls-2" points="1087.39 96.55 1072.52 96.55 1057.37 29.37 1071.73 29.37 1087.39 96.55"/><polygon class="cls-16" points="1071.73 29.37 1061 45.64 1057.37 29.37 1071.73 29.37"/><polygon class="cls-15" points="1057.37 29.37 1057.08 28.26 1072.6 28.26 1071.73 29.37 1057.37 29.37"/></g></g></g></g></svg>